<svg id="SvgjsSvg1006" width="288" height="288" xmlns="http://www.w3.org/2000/svg" version="1.1" xmlns:xlink="http://www.w3.org/1999/xlink" xmlns:svgjs="http://svgjs.com/svgjs"><defs id="SvgjsDefs1007"></defs><g id="SvgjsG1008" transform="matrix(1,0,0,1,0,0)"><svg xmlns="http://www.w3.org/2000/svg" width="288" height="288" viewBox="0 0 1324 1323"><defs><linearGradient id="a" x1=".695%" x2="99.305%" y1="0%" y2="100%"><stop offset="0%" stop-color="#95bd95" class="stopColorFF8F71 svgShape"></stop><stop offset="100%" stop-color="#213321" class="stopColorFF3E55 svgShape"></stop></linearGradient></defs><path fill="url(#a)" fill-rule="evenodd" d="M821.895188,497.739327 L821.895188,825.739327 L493.895188,825.739327 L493.895188,597.739327 C493.895188,542.510852 538.666713,497.739327 593.895188,497.739327 L821.895188,497.739327 Z M276.655938,496.460979 C367.230637,496.460979 440.655938,569.88628 440.655938,660.460979 C440.655938,751.035678 367.230637,824.460979 276.655938,824.460979 C186.081239,824.460979 112.655938,751.035678 112.655938,660.460979 C112.655938,569.88628 186.081239,496.460979 276.655938,496.460979 Z M822.227687,111.489551 L822.227687,439.489551 L594.227687,439.489551 C538.999212,439.489551 494.227687,394.718026 494.227687,339.489551 L494.227687,339.489551 L494.227687,111.489551 L822.227687,111.489551 Z M440.061253,110.58581 L440.061253,338.58581 C440.061253,393.814285 395.289728,438.58581 340.061253,438.58581 L112.061253,438.58581 L112.061253,110.58581 L440.061253,110.58581 Z" transform="rotate(22 67.652 1066.199)"></path></svg></g></svg>